<svg xmlns="http://www.w3.org/2000/svg" fill="none" viewBox="0 0 71 70">
  <g clip-path="url(#Z74zPXQjQa)" stroke="#000" stroke-width="3">
    <path d="M35.667 1.842c-15.26 0-27.632 12.372-27.632 27.632v16.579h5.527v-16.58c0-12.894 9.705-22.45 22.105-22.45 12.397 0 22.105 9.556 22.105 22.45v18.422l5.526-1.842v-16.58c0-15.26-12.371-27.63-27.631-27.63z" fill="#66757F"/>
    <path d="M13.56 51.58a3.686 3.686 0 01-3.684 3.683H6.192a3.686 3.686 0 01-3.684-3.684V35a3.686 3.686 0 013.684-3.684h3.684A3.686 3.686 0 0113.56 35v16.58zm55.264 0a3.686 3.686 0 01-3.685 3.683h-3.684a3.686 3.686 0 01-3.684-3.684V35a3.686 3.686 0 013.684-3.684h3.684A3.686 3.686 0 0168.824 35v16.58z" fill="#31373D"/>
    <path d="M37.843 20.292L26.12 22.711c-.83.171-1.507 1.002-1.507 1.85v29.814a11.456 11.456 0 00-3.845-.663c-5.13 0-9.288 3.233-9.288 7.224 0 3.989 4.16 7.05 9.288 7.05 5.04-.003 9.227-3.513 9.371-7.197V32.034l7.744-1.606c.828-.172 1.467-1.004 1.467-1.85V21.52c0-.843-.678-1.398-1.507-1.227zm14.737 5.805l-7.916 1.593c-.829.171-1.63 1.002-1.63 1.848v21.01c0 .11-1.617-.443-2.58-.443-3.727 0-6.691 2.35-6.691 5.254 0 2.9 3.054 5.252 6.784 5.252s6.774-2.353 6.774-5.252l-.026-20.79 5.285-1.102c.829-.171 1.507-1.002 1.507-1.848v-4.292c0-.845-.678-1.4-1.507-1.23z" fill="#55ACEE"/>
  </g>
  <defs>
    <clipPath id="Z74zPXQjQa">
      <path fill="#fff" transform="translate(.666)" d="M0 0h70v70H0z"/>
    </clipPath>
  </defs>
</svg>
