<svg xmlns="http://www.w3.org/2000/svg" fill="none" viewBox="0 0 96 82">
  <path d="M55.297 33.897H33.254v20.039h22.043v-20.04zM67.26 56.139H45.217v20.039H67.26v-20.04zm-24.31 0H20.906v20.039H42.95v-20.04z" stroke="#30AEBF" stroke-width="4"/>
  <path d="M.736 80.788l86.886-.35" stroke="#8CC924" stroke-width="4"/>
  <path d="M72.561 33.628c5.828 0 10.552-4.654 10.552-10.396 0-5.742-4.724-10.396-10.552-10.396-5.827 0-10.551 4.654-10.551 10.396 0 5.742 4.724 10.396 10.551 10.396z" stroke="#DC3132" stroke-width="4"/>
  <path d="M75.44 9.595l8.633-8.37m-1.919 11.611l8.633-8.371m-4.931 14.176l8.633-8.37" stroke="#EB8788" stroke-width="4" stroke-linecap="round"/>
</svg>
