<svg xmlns="http://www.w3.org/2000/svg" fill="none" viewBox="0 0 137 86">
  <path d="M54.805 34.109s-3.716-1.122-2.717 4.015c.425 2.174 3.442 2.548 3.442 2.548S53.543 46.5 65.963 46.5c19.01 0 20.66-4.285 19.416-8.045-.545-1.647-2.91-3.009-3.67-8.014-1.54-10.136-.409-13.977-9.98-15.774-8.555-1.607-16.796-.49-16.924 19.442z" fill="#F5D0B4" stroke="#000" stroke-width="1.5" stroke-miterlimit="10"/>
  <path d="M55.297 39.266s-2.439-1.71-1.365-3.233" stroke="#EAAD92" stroke-width="1.5" stroke-miterlimit="10" stroke-linecap="round"/>
  <path d="M68.148 37.431c-1.596 0-2.89-1.513-2.89-3.379s1.294-3.38 2.89-3.38c1.597 0 2.891 1.514 2.891 3.38 0 1.866-1.294 3.38-2.89 3.38zm10.467-.406c-1.123 0-2.034-1.252-2.034-2.795s.91-2.794 2.034-2.794c1.123 0 2.033 1.251 2.033 2.794 0 1.544-.91 2.795-2.033 2.795z" fill="#000"/>
  <path d="M70.372 33.11a.948.948 0 01-.222.65.82.82 0 01-.584.292c-.446 0-.63-.464-.806-.943-.175-.48-.287-.835.306-1.194.423-.261 1.306.674 1.306 1.196zm9.68.008a.64.64 0 01-.138.44.556.556 0 01-.385.21c-.289 0-.408-.32-.523-.65-.115-.33-.185-.576.198-.825.28-.18.848.465.848.825z" fill="#fff"/>
  <path d="M50.465 14.743s1.452 6.222 5.14-3.038C59.29 2.445 64.171.964 65.527.84c2.675-.248.284 7.654 1.606 8.503 1.323.849 14.557-5.575 16.73-5.11 2.173.466 4.633-.937 2.175 10.023 0 0-1.039 2.268 6.049 3.214 7.087.946-4.064 7.937-4.064 9.161 0 1.225 2.741 7.181.567 8.126-2.175.944-4.064-.944-4.064-.944s-8.03-6.993-8.79-6.71c-.761.284-.473 3.403-1.513 3.78-1.04.377-4.253-1.41-8.6-1.04-4.348.37-7.847-.188-9.17 2.08-1.322 2.267-1.323 3.22-1.323 3.22s.19-1.142-.82-1.12c-2.95.068-2.502 2.19-2.502 2.19s-2.257-3.329-1.788-7.577c.847-7.695-5.9.75-.42-6.252.448-.592-.634-9.264.864-7.641z" fill="#E63427" stroke="#000" stroke-width="1.5" stroke-linejoin="round"/>
  <path d="M68.44 63.62s-1.146 17.22-.755 18.993c.392 1.774 1.254 2.437 2.195 1.33 2.505-2.947 2.448-20.04 2.448-20.04l-3.887-.284z" fill="#5A7DBE" stroke="#000" stroke-width="1.5" stroke-miterlimit="10"/>
  <path d="M70.634 57.551l3.708-2.253c3.114 6.434 4.707 10.199 3.525 11.052-.971.704-2.058 1.922-7.39-8.825l.157.026z" fill="#F5D0B4" stroke="#000" stroke-width="1.5" stroke-miterlimit="10"/>
  <path d="M70.468 57.518c-.298-.6-.61-1.233-.934-1.913-.878-1.83-1.437-3.647-.937-4.816.72-1.678 2.114-2.91 4.511 1.988.43.88.84 1.718 1.226 2.514l-3.702 2.26-.164-.033z" fill="#fff" stroke="#000" stroke-width="1.5" stroke-miterlimit="10"/>
  <path d="M62.98 62.89s-1.522 18.365-1.119 20.175c.404 1.809 1.265 2.49 2.201 1.35 2.491-3.031 3.114-20.396 3.114-20.396L62.98 62.89z" fill="#5A7DBE" stroke="#000" stroke-width="1.5" stroke-miterlimit="10"/>
  <path d="M65.344 45.831l.098 2.375c-1.484-.322-4.133.826-3.982 2.583.244 2.836.608 7.251.243 15.923-.031.749 1.581 2.844 9.608 1.564 3.105-.495 2.432-1.138.85-11.374-.368-2.392 1.582-7.676-3.194-7.928l-.328-2.741" fill="#F5D0B4"/>
  <path d="M65.344 45.831l.098 2.375c-1.484-.322-4.133.826-3.982 2.583.244 2.836.608 7.251.243 15.923-.031.749 1.581 2.844 9.608 1.564 3.105-.495 2.432-1.138.85-11.374-.368-2.392 1.582-7.676-3.194-7.928l-.328-2.741" stroke="#000" stroke-width="1.5" stroke-linejoin="round"/>
  <path d="M65.327 48.143c-.136-.583-4.135.828-3.984 2.585.246 2.836.608 7.252.244 15.923-.03.747 1.582 2.844 9.607 1.565 3.113-.495 2.433-1.138.852-11.375-.37-2.392 1.581-7.678-3.196-7.928 0 0-2.786 2.467-3.523-.763" fill="#fff"/>
  <path d="M61.57 54.226s7.149-1.423 10.377.402m-10.345 2.526s7.15-.668 10.703.419m-10.674 2.509s7.153.09 11.03.437M61.659 63.01s7.156.846 11.355.455m-11.326 2.474s7.158 1.603 11.681.472" stroke="#E52421" stroke-width="1.5" stroke-linejoin="round"/>
  <path d="M65.351 48.154c-.134-.585-4.133.827-3.982 2.585.244 2.835.608 7.25.244 15.921-.032.75 1.58 2.844 9.607 1.565 3.113-.495 2.431-1.136.852-11.374-.37-2.393 1.58-7.677-3.196-7.929 0 0-2.786 2.467-3.525-.76" stroke="#000" stroke-width="1.5" stroke-linejoin="round"/>
  <path d="M68.531 46.42l-2.133.112-1.382-1.172h3.04l.475 1.06z" fill="#F5D0B4"/>
  <path d="M59.413 56.414l.045-.185a7.323 7.323 0 014.462 1.267c-3.148 13.204-4.58 12.317-5.765 11.927-1.464-.477-.595-5.054 1.258-13.009z" fill="#F5D0B4" stroke="#000" stroke-width="1.5" stroke-miterlimit="10"/>
  <path d="M59.494 56.08c.16-.692.329-1.408.505-2.15 1.363-5.77 3.095-4.99 4.23-3.532.79 1.015.627 3.045.137 5.192-.14.613-.277 1.197-.41 1.762a7.35 7.35 0 00-4.462-1.272v0z" fill="#fff" stroke="#000" stroke-width="1.5" stroke-miterlimit="10"/>
  <mask id="yad75r-TJa" fill="#fff">
    <rect x="116.166" y="19.4" width="20.087" height="20.1" rx="2"/>
  </mask>
  <rect x="116.166" y="19.4" width="20.087" height="20.1" rx="2" fill="#61D9FF" stroke="#000" stroke-width="6.6" mask="url(#yad75r-TJa)"/>
  <rect x="117.816" y="61.2" width="16.787" height="16.8" rx="8.35" fill="#49DE85" stroke="#000" stroke-width="3.3"/>
  <path d="M12.175 60.006l8.392 4.846a.35.35 0 01.175.303v9.69a.35.35 0 01-.175.303l-8.392 4.846a.35.35 0 01-.35 0l-8.392-4.846a.35.35 0 01-.175-.303v-9.69a.35.35 0 01.175-.303l8.392-4.846a.35.35 0 01.35 0z" fill="#D83EDB" stroke="#000" stroke-width="3.3" stroke-linejoin="round"/>
  <path d="M96.08 39.5h6.696V29.45h6.695M96.08 59.55h6.696V69.6h6.695M43.47 59.55h-6.695V69.6H30.08" stroke="#000" stroke-width="3.3" stroke-linecap="round" stroke-linejoin="round"/>
</svg>
