<svg xmlns="http://www.w3.org/2000/svg" fill="none" viewBox="0 -10 78 98">
  <g clip-path="url(#DJSS_i9rba)">
    <path d="M70.383 0H7.617A7.617 7.617 0 000 7.617v62.766A7.617 7.617 0 007.617 78h62.766A7.617 7.617 0 0078 70.383V7.617A7.617 7.617 0 0070.383 0z" fill="#3178C6"/>
    <path d="M70.383 0H7.617A7.617 7.617 0 000 7.617v62.766A7.617 7.617 0 007.617 78h62.766A7.617 7.617 0 0078 70.383V7.617A7.617 7.617 0 0070.383 0z" fill="#3178C6"/>
    <path fill-rule="evenodd" clip-rule="evenodd" d="M48.284 62.069v7.626c1.24.636 2.706 1.112 4.399 1.43a28.95 28.95 0 005.352.477 24.99 24.99 0 005.21-.525c1.645-.35 3.087-.925 4.327-1.728a8.804 8.804 0 002.945-3.146c.723-1.294 1.085-2.895 1.085-4.802 0-1.382-.207-2.594-.62-3.634a8.494 8.494 0 00-1.788-2.777c-.78-.81-1.713-1.537-2.802-2.18a30.01 30.01 0 00-3.684-1.824 46.473 46.473 0 01-2.694-1.203 13.77 13.77 0 01-2.027-1.192c-.556-.405-.985-.834-1.287-1.287a2.708 2.708 0 01-.453-1.537c0-.524.135-.997.405-1.418.27-.421.652-.782 1.145-1.084.493-.302 1.097-.537 1.812-.703a10.5 10.5 0 012.384-.25c.636 0 1.307.047 2.015.142.707.096 1.418.243 2.134.441.715.199 1.41.45 2.086.75.675.303 1.3.652 1.872 1.05v-7.126a18.616 18.616 0 00-3.803-.99c-1.375-.214-2.953-.321-4.733-.321-1.812 0-3.529.194-5.15.584-1.621.389-3.048.997-4.28 1.823a9.11 9.11 0 00-2.92 3.158c-.716 1.279-1.073 2.808-1.073 4.587 0 2.273.655 4.21 1.967 5.816 1.31 1.604 3.302 2.963 5.972 4.075 1.05.43 2.027.85 2.933 1.263a16.31 16.31 0 012.348 1.287c.66.445 1.18.93 1.562 1.454a2.96 2.96 0 01.572 1.787c0 .493-.12.95-.357 1.37-.239.422-.6.787-1.085 1.097-.485.31-1.09.552-1.812.727-.724.175-1.57.262-2.54.262-1.653 0-3.29-.29-4.911-.87a14.657 14.657 0 01-4.506-2.61zm-12.821-18.79h9.783v-6.26h-27.27v6.26h9.736v27.865h7.75V43.278z" fill="#fff"/>
  </g>
  <defs>
    <clipPath id="DJSS_i9rba">
      <path fill="#fff" d="M0 0h78v78H0z"/>
    </clipPath>
  </defs>
</svg>
