<svg xmlns="http://www.w3.org/2000/svg" fill="none" viewBox="0 0 96 86">
  <g opacity=".3">
    <path d="M8.493 34.109s-3.717-1.122-2.717 4.015c.424 2.174 3.441 2.548 3.441 2.548S7.231 46.5 19.651 46.5c19.01 0 20.66-4.285 19.416-8.045-.546-1.647-2.91-3.009-3.67-8.014-1.54-10.136-.409-13.977-9.98-15.774-8.555-1.607-16.796-.49-16.924 19.442z" fill="#F5D0B4" stroke="#000" stroke-width="1.5" stroke-miterlimit="10"/>
    <path d="M8.984 39.266s-2.438-1.71-1.365-3.233" stroke="#EAAD92" stroke-width="1.5" stroke-miterlimit="10" stroke-linecap="round"/>
    <path d="M21.838 37.431c-1.597 0-2.891-1.513-2.891-3.379s1.294-3.38 2.89-3.38c1.597 0 2.892 1.514 2.892 3.38 0 1.866-1.295 3.38-2.891 3.38zm10.466-.406c-1.123 0-2.034-1.252-2.034-2.795s.911-2.794 2.034-2.794c1.123 0 2.034 1.251 2.034 2.794 0 1.544-.91 2.795-2.034 2.795z" fill="#000"/>
    <path d="M24.062 33.11a.948.948 0 01-.223.65.82.82 0 01-.583.292c-.446 0-.631-.464-.807-.943-.175-.48-.286-.835.307-1.194.423-.261 1.306.674 1.306 1.196zm9.678.008a.64.64 0 01-.136.44.556.556 0 01-.386.21c-.288 0-.408-.32-.523-.65-.114-.33-.185-.576.199-.825.28-.18.847.465.847.825z" fill="#fff"/>
    <path d="M4.153 14.743s1.452 6.223 5.139-3.037C12.979 2.446 17.859.964 19.216.84c2.674-.249.284 7.653 1.606 8.502 1.322.85 14.557-5.574 16.73-5.109 2.173.465 4.633-.937 2.175 10.023 0 0-1.04 2.267 6.048 3.213 7.088.947-4.064 7.937-4.064 9.162 0 1.224 2.742 7.181.567 8.125-2.175.945-4.064-.944-4.064-.944s-8.03-6.993-8.79-6.709c-.76.284-.472 3.402-1.513 3.78-1.04.376-4.252-1.41-8.6-1.04-4.348.37-7.846-.189-9.169 2.079-1.322 2.267-1.324 3.22-1.324 3.22s.19-1.142-.82-1.119c-2.949.067-2.502 2.189-2.502 2.189s-2.256-3.328-1.788-7.576c.848-7.696-5.899.75-.419-6.253.447-.592-.634-9.264.864-7.64z" fill="#E63427" stroke="#000" stroke-width="1.5" stroke-linejoin="round"/>
    <path d="M22.126 63.62s-1.147 17.22-.755 18.993c.392 1.774 1.254 2.437 2.194 1.33 2.506-2.947 2.449-20.04 2.449-20.04l-3.888-.284z" fill="#5A7DBE" stroke="#000" stroke-width="1.5" stroke-miterlimit="10"/>
    <path d="M24.321 57.551l3.709-2.253c3.113 6.434 4.706 10.199 3.525 11.052-.972.704-2.058 1.922-7.39-8.825l.156.026z" fill="#F5D0B4" stroke="#000" stroke-width="1.5" stroke-miterlimit="10"/>
    <path d="M24.156 57.518c-.299-.6-.61-1.233-.934-1.913-.879-1.83-1.438-3.647-.938-4.816.72-1.678 2.114-2.91 4.512 1.988.43.88.839 1.718 1.226 2.514l-3.702 2.26-.164-.033z" fill="#fff" stroke="#000" stroke-width="1.5" stroke-miterlimit="10"/>
    <path d="M16.668 62.89s-1.522 18.365-1.12 20.174c.404 1.81 1.266 2.49 2.202 1.35 2.49-3.03 3.113-20.395 3.113-20.395l-4.195-1.13z" fill="#5A7DBE" stroke="#000" stroke-width="1.5" stroke-miterlimit="10"/>
    <path d="M19.032 45.831l.098 2.375c-1.485-.322-4.133.826-3.982 2.583.244 2.836.608 7.251.242 15.923-.03.749 1.582 2.844 9.608 1.564 3.106-.495 2.432-1.138.85-11.374-.368-2.392 1.582-7.676-3.193-7.928l-.328-2.741" fill="#F5D0B4"/>
    <path d="M19.032 45.831l.098 2.375c-1.485-.322-4.133.826-3.982 2.583.244 2.836.608 7.251.242 15.923-.03.749 1.582 2.844 9.608 1.564 3.106-.495 2.432-1.138.85-11.374-.368-2.392 1.582-7.676-3.193-7.928l-.328-2.741" stroke="#000" stroke-width="1.5" stroke-linejoin="round"/>
    <path d="M19.012 48.144c-.136-.583-4.134.828-3.983 2.584.245 2.837.608 7.252.244 15.924-.031.747 1.581 2.843 9.606 1.564 3.114-.495 2.434-1.138.852-11.374-.37-2.393 1.582-7.678-3.195-7.928 0 0-2.786 2.466-3.524-.763" fill="#fff"/>
    <path d="M15.256 54.227s7.148-1.424 10.377.402m-10.345 2.525s7.15-.668 10.702.42m-10.673 2.509s7.153.09 11.029.436M15.344 63.01s7.157.846 11.355.455M15.374 65.94s7.158 1.603 11.68.472" stroke="#E52421" stroke-width="1.5" stroke-linejoin="round"/>
    <path d="M19.037 48.155c-.135-.585-4.133.826-3.982 2.584.244 2.835.608 7.25.244 15.922-.033.749 1.58 2.843 9.606 1.564 3.114-.495 2.432-1.136.852-11.374-.37-2.392 1.58-7.676-3.195-7.928 0 0-2.786 2.466-3.525-.761" stroke="#000" stroke-width="1.5" stroke-linejoin="round"/>
    <path d="M22.219 46.421l-2.134.111-1.381-1.172h3.04l.475 1.061z" fill="#F5D0B4"/>
    <path d="M13.1 56.414l.045-.185a7.323 7.323 0 014.462 1.266C14.46 70.7 13.03 69.812 11.842 69.423c-1.463-.478-.595-5.055 1.259-13.01z" fill="#F5D0B4" stroke="#000" stroke-width="1.5" stroke-miterlimit="10"/>
    <path d="M13.182 56.08c.16-.692.329-1.409.504-2.15 1.364-5.77 3.096-4.991 4.23-3.532.79 1.015.628 3.044.138 5.192-.141.613-.277 1.196-.41 1.762a7.349 7.349 0 00-4.462-1.272v0z" fill="#fff" stroke="#000" stroke-width="1.5" stroke-miterlimit="10"/>
  </g>
  <g opacity=".4">
    <path d="M20.21 34.109s-3.717-1.122-2.718 4.015c.425 2.174 3.442 2.548 3.442 2.548S18.948 46.5 31.368 46.5c19.01 0 20.66-4.285 19.416-8.045-.546-1.647-2.91-3.009-3.671-8.014-1.539-10.136-.408-13.977-9.98-15.774-8.554-1.607-16.796-.49-16.923 19.442z" fill="#F5D0B4" stroke="#000" stroke-width="1.5" stroke-miterlimit="10"/>
    <path d="M20.701 39.266s-2.438-1.71-1.365-3.233" stroke="#EAAD92" stroke-width="1.5" stroke-miterlimit="10" stroke-linecap="round"/>
    <path d="M33.555 37.431c-1.597 0-2.891-1.513-2.891-3.379s1.294-3.38 2.89-3.38c1.597 0 2.891 1.514 2.891 3.38 0 1.866-1.294 3.38-2.89 3.38zm10.466-.406c-1.123 0-2.034-1.252-2.034-2.795s.91-2.794 2.034-2.794c1.123 0 2.034 1.251 2.034 2.794 0 1.544-.91 2.795-2.034 2.795z" fill="#000"/>
    <path d="M35.779 33.11a.948.948 0 01-.223.65.82.82 0 01-.584.292c-.445 0-.63-.464-.806-.943-.175-.48-.287-.835.307-1.194.422-.261 1.306.674 1.306 1.196zm9.679.008a.64.64 0 01-.137.44.556.556 0 01-.386.21c-.288 0-.408-.32-.523-.65-.114-.33-.185-.576.199-.825.28-.18.847.465.847.825z" fill="#fff"/>
    <path d="M15.867 14.743s1.452 6.223 5.14-3.037C24.694 2.446 29.573.964 30.93.84c2.674-.249.283 7.653 1.606 8.502 1.322.85 14.557-5.574 16.73-5.109 2.173.465 4.633-.937 2.174 10.023 0 0-1.039 2.267 6.049 3.213 7.088.947-4.064 7.937-4.064 9.162 0 1.224 2.741 7.181.567 8.125-2.175.945-4.064-.944-4.064-.944s-8.03-6.993-8.79-6.709c-.76.284-.472 3.402-1.513 3.78-1.04.376-4.253-1.41-8.6-1.04-4.348.37-7.846-.189-9.169 2.079-1.322 2.267-1.324 3.22-1.324 3.22s.19-1.142-.82-1.119c-2.95.067-2.502 2.189-2.502 2.189s-2.256-3.328-1.788-7.576c.848-7.696-5.9.75-.42-6.253.448-.592-.633-9.264.864-7.64z" fill="#E63427" stroke="#000" stroke-width="1.5" stroke-linejoin="round"/>
    <path d="M33.843 63.62s-1.147 17.22-.755 18.993c.391 1.774 1.253 2.437 2.194 1.33 2.506-2.947 2.448-20.04 2.448-20.04l-3.887-.284z" fill="#5A7DBE" stroke="#000" stroke-width="1.5" stroke-miterlimit="10"/>
    <path d="M36.038 57.55l3.709-2.253c3.113 6.434 4.706 10.2 3.525 11.052-.972.705-2.059 1.922-7.391-8.825l.157.027z" fill="#F5D0B4" stroke="#000" stroke-width="1.5" stroke-miterlimit="10"/>
    <path d="M35.87 57.517c-.298-.6-.61-1.233-.934-1.913-.878-1.829-1.437-3.647-.937-4.815.72-1.679 2.114-2.91 4.511 1.987.431.88.84 1.718 1.226 2.514l-3.702 2.26-.163-.033z" fill="#fff" stroke="#000" stroke-width="1.5" stroke-miterlimit="10"/>
    <path d="M28.385 62.89s-1.523 18.365-1.12 20.174c.404 1.81 1.266 2.49 2.201 1.35 2.491-3.03 3.114-20.395 3.114-20.395l-4.195-1.13z" fill="#5A7DBE" stroke="#000" stroke-width="1.5" stroke-miterlimit="10"/>
    <path d="M30.748 45.831l.099 2.375c-1.485-.322-4.133.826-3.983 2.583.245 2.836.608 7.251.243 15.923-.031.749 1.581 2.844 9.608 1.564 3.105-.495 2.432-1.138.85-11.374-.368-2.392 1.582-7.676-3.193-7.928l-.328-2.741" fill="#F5D0B4"/>
    <path d="M30.748 45.831l.099 2.375c-1.485-.322-4.133.826-3.983 2.583.245 2.836.608 7.251.243 15.923-.031.749 1.581 2.844 9.608 1.564 3.105-.495 2.432-1.138.85-11.374-.368-2.392 1.582-7.676-3.193-7.928l-.328-2.741" stroke="#000" stroke-width="1.5" stroke-linejoin="round"/>
    <path d="M30.73 48.144c-.137-.583-4.135.828-3.985 2.584.246 2.837.608 7.252.245 15.924-.032.747 1.581 2.843 9.606 1.564 3.114-.495 2.433-1.138.852-11.374-.37-2.393 1.581-7.678-3.196-7.928 0 0-2.785 2.466-3.523-.763" fill="#fff"/>
    <path d="M26.973 54.227s7.148-1.424 10.377.402m-10.346 2.525s7.15-.668 10.703.42m-10.673 2.509s7.153.09 11.029.436M27.061 63.01s7.157.846 11.355.455M27.09 65.94s7.159 1.603 11.682.472" stroke="#E52421" stroke-width="1.5" stroke-linejoin="round"/>
    <path d="M30.754 48.155c-.135-.585-4.133.826-3.983 2.584.245 2.835.608 7.25.245 15.922-.033.749 1.58 2.843 9.606 1.564 3.114-.495 2.432-1.136.852-11.374-.37-2.392 1.58-7.676-3.195-7.928 0 0-2.786 2.466-3.525-.761" stroke="#000" stroke-width="1.5" stroke-linejoin="round"/>
    <path d="M33.935 46.421l-2.133.111-1.382-1.172h3.04l.475 1.061z" fill="#F5D0B4"/>
    <path d="M24.818 56.414l.044-.185a7.323 7.323 0 014.462 1.266C26.176 70.7 24.746 69.812 23.56 69.423c-1.463-.478-.595-5.055 1.259-13.01z" fill="#F5D0B4" stroke="#000" stroke-width="1.5" stroke-miterlimit="10"/>
    <path d="M24.898 56.08c.161-.692.33-1.409.505-2.15 1.364-5.77 3.096-4.991 4.23-3.532.79 1.015.628 3.044.137 5.192-.14.613-.276 1.196-.41 1.762a7.349 7.349 0 00-4.462-1.272v0z" fill="#fff" stroke="#000" stroke-width="1.5" stroke-miterlimit="10"/>
  </g>
  <g opacity=".6">
    <path d="M31.926 34.109s-3.716-1.122-2.717 4.015c.425 2.174 3.442 2.548 3.442 2.548S30.664 46.5 43.085 46.5c19.01 0 20.66-4.285 19.416-8.045-.546-1.647-2.91-3.009-3.671-8.014-1.54-10.136-.408-13.977-9.98-15.774-8.555-1.607-16.796-.49-16.924 19.442z" fill="#F5D0B4" stroke="#000" stroke-width="1.5" stroke-miterlimit="10"/>
    <path d="M32.418 39.266s-2.438-1.71-1.365-3.233" stroke="#EAAD92" stroke-width="1.5" stroke-miterlimit="10" stroke-linecap="round"/>
    <path d="M45.27 37.431c-1.597 0-2.891-1.513-2.891-3.379s1.294-3.38 2.89-3.38c1.597 0 2.891 1.514 2.891 3.38 0 1.866-1.294 3.38-2.89 3.38zm10.466-.406c-1.123 0-2.034-1.252-2.034-2.795s.91-2.794 2.034-2.794c1.123 0 2.034 1.251 2.034 2.794 0 1.544-.911 2.795-2.034 2.795z" fill="#000"/>
    <path d="M47.493 33.11a.948.948 0 01-.222.65.82.82 0 01-.584.292c-.445 0-.63-.464-.806-.943-.175-.48-.287-.835.306-1.194.423-.261 1.306.674 1.306 1.196zm9.68.008a.64.64 0 01-.138.44.556.556 0 01-.385.21c-.289 0-.408-.32-.523-.65-.115-.33-.185-.576.198-.825.28-.18.848.465.848.825z" fill="#fff"/>
    <path d="M27.584 14.743s1.452 6.223 5.14-3.037C36.41 2.446 41.29.964 42.647.84c2.674-.249.283 7.653 1.606 8.502 1.322.85 14.557-5.574 16.73-5.109 2.172.465 4.632-.937 2.174 10.023 0 0-1.039 2.267 6.049 3.213 7.087.947-4.064 7.937-4.064 9.162 0 1.224 2.741 7.181.567 8.125-2.175.945-4.064-.944-4.064-.944s-8.03-6.993-8.79-6.709c-.761.284-.473 3.402-1.513 3.78-1.04.376-4.253-1.41-8.6-1.04-4.348.37-7.847-.189-9.17 2.079-1.322 2.267-1.323 3.22-1.323 3.22s.19-1.142-.82-1.119c-2.95.067-2.502 2.189-2.502 2.189s-2.257-3.328-1.788-7.576c.847-7.696-5.9.75-.42-6.253.448-.592-.634-9.264.864-7.64z" fill="#E63427" stroke="#000" stroke-width="1.5" stroke-linejoin="round"/>
    <path d="M45.56 63.62s-1.147 17.22-.755 18.993c.391 1.774 1.253 2.437 2.194 1.33 2.505-2.947 2.448-20.04 2.448-20.04l-3.887-.284z" fill="#5A7DBE" stroke="#000" stroke-width="1.5" stroke-miterlimit="10"/>
    <path d="M47.755 57.551l3.709-2.253c3.113 6.434 4.706 10.199 3.524 11.052-.971.704-2.058 1.922-7.39-8.825l.157.026z" fill="#F5D0B4" stroke="#000" stroke-width="1.5" stroke-miterlimit="10"/>
    <path d="M47.59 57.518c-.299-.6-.61-1.233-.935-1.913-.878-1.83-1.437-3.647-.937-4.816.72-1.678 2.114-2.91 4.511 1.988.43.88.84 1.718 1.226 2.514l-3.702 2.26-.164-.033z" fill="#fff" stroke="#000" stroke-width="1.5" stroke-miterlimit="10"/>
    <path d="M40.1 62.89s-1.523 18.365-1.12 20.174c.404 1.81 1.266 2.49 2.201 1.35 2.491-3.03 3.114-20.395 3.114-20.395l-4.195-1.13z" fill="#5A7DBE" stroke="#000" stroke-width="1.5" stroke-miterlimit="10"/>
    <path d="M42.463 45.831l.099 2.375c-1.485-.322-4.133.826-3.983 2.583.245 2.836.608 7.251.243 15.923-.031.749 1.581 2.844 9.608 1.564 3.105-.495 2.432-1.138.85-11.374-.368-2.392 1.582-7.676-3.194-7.928l-.327-2.741" fill="#F5D0B4"/>
    <path d="M42.463 45.831l.099 2.375c-1.485-.322-4.133.826-3.983 2.583.245 2.836.608 7.251.243 15.923-.031.749 1.581 2.844 9.608 1.564 3.105-.495 2.432-1.138.85-11.374-.368-2.392 1.582-7.676-3.194-7.928l-.327-2.741" stroke="#000" stroke-width="1.5" stroke-linejoin="round"/>
    <path d="M42.444 48.144c-.136-.583-4.135.828-3.984 2.584.246 2.837.608 7.252.244 15.924-.03.747 1.582 2.843 9.607 1.564 3.113-.495 2.433-1.138.852-11.374-.37-2.393 1.581-7.678-3.196-7.928 0 0-2.785 2.466-3.523-.763" fill="#fff"/>
    <path d="M38.688 54.227s7.148-1.424 10.377.402M38.72 57.154s7.15-.668 10.702.42m-10.673 2.509s7.153.09 11.028.436M38.776 63.01s7.156.846 11.355.455M38.805 65.94s7.158 1.603 11.681.472" stroke="#E52421" stroke-width="1.5" stroke-linejoin="round"/>
    <path d="M42.468 48.155c-.134-.585-4.133.826-3.982 2.584.244 2.835.608 7.25.244 15.922-.032.749 1.58 2.843 9.607 1.564 3.113-.495 2.432-1.136.852-11.374-.37-2.392 1.58-7.676-3.196-7.928 0 0-2.785 2.466-3.525-.761" stroke="#000" stroke-width="1.5" stroke-linejoin="round"/>
    <path d="M45.65 46.421l-2.133.111-1.382-1.172h3.04l.475 1.061z" fill="#F5D0B4"/>
    <path d="M36.53 56.414l.045-.185a7.323 7.323 0 014.462 1.266C37.89 70.7 36.458 69.812 35.272 69.423c-1.463-.478-.595-5.055 1.259-13.01z" fill="#F5D0B4" stroke="#000" stroke-width="1.5" stroke-miterlimit="10"/>
    <path d="M36.611 56.08c.161-.692.33-1.409.505-2.15 1.364-5.77 3.096-4.991 4.23-3.532.79 1.015.627 3.044.137 5.192-.14.613-.277 1.196-.41 1.762a7.349 7.349 0 00-4.462-1.272v0z" fill="#fff" stroke="#000" stroke-width="1.5" stroke-miterlimit="10"/>
  </g>
  <g opacity=".8">
    <path d="M43.645 34.109s-3.717-1.122-2.717 4.015c.425 2.174 3.441 2.548 3.441 2.548S42.383 46.5 54.803 46.5c19.01 0 20.66-4.285 19.416-8.045-.545-1.647-2.91-3.009-3.67-8.014-1.54-10.136-.409-13.977-9.98-15.774-8.555-1.607-16.796-.49-16.924 19.442z" fill="#F5D0B4" stroke="#000" stroke-width="1.5" stroke-miterlimit="10"/>
    <path d="M44.137 39.266s-2.439-1.71-1.365-3.233" stroke="#EAAD92" stroke-width="1.5" stroke-miterlimit="10" stroke-linecap="round"/>
    <path d="M56.988 37.431c-1.596 0-2.89-1.513-2.89-3.379s1.294-3.38 2.89-3.38c1.597 0 2.89 1.514 2.89 3.38 0 1.866-1.293 3.38-2.89 3.38zm10.467-.406c-1.124 0-2.034-1.252-2.034-2.795s.91-2.794 2.034-2.794c1.123 0 2.033 1.251 2.033 2.794 0 1.544-.91 2.795-2.033 2.795z" fill="#000"/>
    <path d="M59.212 33.11a.948.948 0 01-.222.65.82.82 0 01-.584.292c-.446 0-.63-.464-.806-.943-.176-.48-.287-.835.306-1.194.423-.261 1.306.674 1.306 1.196zm9.679.008a.64.64 0 01-.137.44.556.556 0 01-.385.21c-.289 0-.409-.32-.523-.65-.115-.33-.185-.576.198-.825.28-.18.847.465.847.825z" fill="#fff"/>
    <path d="M39.303 14.743s1.452 6.222 5.14-3.038C48.128 2.445 53.01.964 54.365.84c2.675-.248.284 7.654 1.606 8.503 1.323.849 14.557-5.575 16.73-5.11 2.173.466 4.633-.937 2.175 10.023 0 0-1.039 2.268 6.049 3.214 7.087.946-4.065 7.937-4.065 9.161 0 1.225 2.742 7.181.567 8.126-2.174.944-4.064-.944-4.064-.944s-8.03-6.993-8.79-6.71c-.76.284-.472 3.403-1.512 3.78-1.041.377-4.253-1.41-8.6-1.04-4.348.37-7.847-.188-9.17 2.08-1.322 2.267-1.324 3.22-1.324 3.22s.19-1.142-.819-1.12c-2.95.068-2.502 2.19-2.502 2.19s-2.257-3.329-1.788-7.577c.847-7.695-5.9.75-.42-6.252.448-.592-.634-9.264.864-7.641z" fill="#E63427" stroke="#000" stroke-width="1.5" stroke-linejoin="round"/>
    <path d="M57.279 63.62s-1.147 17.22-.756 18.993c.392 1.774 1.254 2.437 2.195 1.33 2.505-2.947 2.448-20.04 2.448-20.04l-3.887-.284z" fill="#5A7DBE" stroke="#000" stroke-width="1.5" stroke-miterlimit="10"/>
    <path d="M59.474 57.551l3.708-2.253c3.114 6.434 4.707 10.199 3.525 11.052-.972.704-2.058 1.922-7.39-8.825l.157.026z" fill="#F5D0B4" stroke="#000" stroke-width="1.5" stroke-miterlimit="10"/>
    <path d="M59.308 57.518c-.298-.6-.61-1.233-.934-1.913-.878-1.83-1.437-3.647-.937-4.816.719-1.678 2.114-2.91 4.511 1.988.43.88.84 1.718 1.226 2.514l-3.702 2.26-.164-.033z" fill="#fff" stroke="#000" stroke-width="1.5" stroke-miterlimit="10"/>
    <path d="M51.816 62.89s-1.522 18.365-1.119 20.174c.403 1.81 1.265 2.49 2.201 1.35 2.491-3.03 3.114-20.395 3.114-20.395l-4.196-1.13z" fill="#5A7DBE" stroke="#000" stroke-width="1.5" stroke-miterlimit="10"/>
    <path d="M54.182 45.83l.098 2.376c-1.485-.323-4.133.826-3.982 2.582.244 2.837.608 7.252.243 15.924-.031.748 1.581 2.843 9.608 1.564 3.105-.495 2.431-1.138.85-11.374-.369-2.393 1.581-7.676-3.194-7.928l-.328-2.742" fill="#F5D0B4"/>
    <path d="M54.182 45.83l.098 2.376c-1.485-.323-4.133.826-3.982 2.582.244 2.837.608 7.252.243 15.924-.031.748 1.581 2.843 9.608 1.564 3.105-.495 2.431-1.138.85-11.374-.369-2.393 1.581-7.676-3.194-7.928l-.328-2.742" stroke="#000" stroke-width="1.5" stroke-linejoin="round"/>
    <path d="M54.163 48.143c-.136-.583-4.135.828-3.984 2.585.246 2.836.608 7.252.244 15.923-.031.747 1.581 2.844 9.606 1.565 3.114-.495 2.434-1.138.853-11.375-.37-2.392 1.581-7.678-3.196-7.928 0 0-2.786 2.467-3.523-.763" fill="#fff"/>
    <path d="M50.409 54.226s7.148-1.423 10.376.402M50.44 57.154s7.15-.668 10.703.419M50.47 60.082s7.152.09 11.028.437M50.497 63.01s7.156.846 11.355.455m-11.326 2.474s7.158 1.603 11.681.472" stroke="#E52421" stroke-width="1.5" stroke-linejoin="round"/>
    <path d="M54.187 48.154c-.134-.585-4.133.827-3.982 2.585.244 2.835.608 7.25.244 15.921-.033.75 1.58 2.844 9.607 1.565 3.113-.495 2.431-1.136.852-11.374-.37-2.393 1.58-7.677-3.196-7.929 0 0-2.786 2.467-3.525-.76" stroke="#000" stroke-width="1.5" stroke-linejoin="round"/>
    <path d="M57.37 46.42l-2.134.112-1.382-1.172h3.04l.475 1.06z" fill="#F5D0B4"/>
    <path d="M48.25 56.414l.044-.185a7.324 7.324 0 014.462 1.266C49.608 70.7 48.177 69.812 46.99 69.423c-1.464-.478-.595-5.055 1.258-13.01z" fill="#F5D0B4" stroke="#000" stroke-width="1.5" stroke-miterlimit="10"/>
    <path d="M48.33 56.08c.16-.692.329-1.409.505-2.15 1.363-5.77 3.096-4.991 4.23-3.532.79 1.015.627 3.044.137 5.192-.14.613-.277 1.196-.41 1.762a7.348 7.348 0 00-4.462-1.272v0z" fill="#fff" stroke="#000" stroke-width="1.5" stroke-miterlimit="10"/>
  </g>
  <path d="M55.36 34.109s-3.717-1.122-2.717 4.015c.424 2.174 3.441 2.548 3.441 2.548S54.098 46.5 66.518 46.5c19.01 0 20.66-4.285 19.416-8.045-.546-1.647-2.91-3.009-3.67-8.014-1.54-10.136-.409-13.977-9.98-15.774-8.555-1.607-16.796-.49-16.924 19.442z" fill="#F5D0B4" stroke="#000" stroke-width="1.5" stroke-miterlimit="10"/>
  <path d="M55.852 39.266s-2.439-1.71-1.365-3.233" stroke="#EAAD92" stroke-width="1.5" stroke-miterlimit="10" stroke-linecap="round"/>
  <path d="M68.703 37.431c-1.597 0-2.89-1.513-2.89-3.379s1.293-3.38 2.89-3.38c1.596 0 2.89 1.514 2.89 3.38 0 1.866-1.294 3.38-2.89 3.38zm10.467-.406c-1.124 0-2.034-1.252-2.034-2.795s.91-2.794 2.033-2.794c1.124 0 2.034 1.251 2.034 2.794 0 1.544-.91 2.795-2.034 2.795z" fill="#000"/>
  <path d="M70.927 33.11a.948.948 0 01-.223.65.82.82 0 01-.583.292c-.446 0-.631-.464-.806-.943-.176-.48-.287-.835.306-1.194.423-.261 1.306.674 1.306 1.196zm9.679.008c.01.16-.04.319-.137.44a.556.556 0 01-.386.21c-.288 0-.408-.32-.522-.65-.115-.33-.186-.576.198-.825.28-.18.847.465.847.825z" fill="#fff"/>
  <path d="M51.02 14.743s1.452 6.222 5.139-3.038C59.846 2.445 64.726.964 66.083.84c2.675-.248.284 7.654 1.606 8.503 1.323.849 14.557-5.575 16.73-5.11 2.173.466 4.633-.937 2.175 10.023 0 0-1.04 2.268 6.048 3.214 7.088.946-4.064 7.937-4.064 9.161 0 1.225 2.742 7.181.567 8.126-2.174.944-4.064-.944-4.064-.944s-8.03-6.993-8.79-6.71c-.76.284-.472 3.403-1.513 3.78-1.04.377-4.252-1.41-8.6-1.04-4.347.37-7.846-.188-9.169 2.08-1.322 2.267-1.324 3.22-1.324 3.22s.19-1.142-.82-1.12c-2.949.068-2.502 2.19-2.502 2.19s-2.256-3.329-1.787-7.577c.847-7.695-5.9.75-.42-6.252.447-.592-.634-9.264.864-7.641z" fill="#E63427" stroke="#000" stroke-width="1.5" stroke-linejoin="round"/>
  <path d="M68.996 63.62s-1.147 17.22-.756 18.993c.392 1.774 1.254 2.437 2.194 1.33 2.506-2.947 2.449-20.04 2.449-20.04l-3.887-.284z" fill="#5A7DBE" stroke="#000" stroke-width="1.5" stroke-miterlimit="10"/>
  <path d="M71.189 57.551l3.708-2.253c3.114 6.434 4.707 10.199 3.525 11.052-.972.704-2.058 1.922-7.39-8.825l.157.026z" fill="#F5D0B4" stroke="#000" stroke-width="1.5" stroke-miterlimit="10"/>
  <path d="M71.023 57.518a133.7 133.7 0 01-.934-1.913c-.879-1.83-1.437-3.647-.938-4.816.72-1.678 2.114-2.91 4.512 1.988.43.88.839 1.718 1.226 2.514l-3.702 2.26-.164-.033z" fill="#fff" stroke="#000" stroke-width="1.5" stroke-miterlimit="10"/>
  <path d="M63.535 62.89s-1.522 18.365-1.119 20.175c.403 1.809 1.265 2.49 2.2 1.35 2.492-3.031 3.115-20.396 3.115-20.396l-4.196-1.129z" fill="#5A7DBE" stroke="#000" stroke-width="1.5" stroke-miterlimit="10"/>
  <path d="M65.899 45.831l.098 2.375c-1.485-.322-4.133.826-3.982 2.583.244 2.836.608 7.251.242 15.923-.03.749 1.582 2.844 9.608 1.564 3.106-.495 2.432-1.138.85-11.374-.368-2.392 1.582-7.676-3.193-7.928l-.328-2.741" fill="#F5D0B4"/>
  <path d="M65.899 45.831l.098 2.375c-1.485-.322-4.133.826-3.982 2.583.244 2.836.608 7.251.242 15.923-.03.749 1.582 2.844 9.608 1.564 3.106-.495 2.432-1.138.85-11.374-.368-2.392 1.582-7.676-3.193-7.928l-.328-2.741" stroke="#000" stroke-width="1.5" stroke-linejoin="round"/>
  <path d="M65.882 48.143c-.136-.583-4.135.828-3.984 2.585.245 2.836.608 7.252.244 15.923-.031.747 1.581 2.844 9.606 1.565 3.114-.495 2.434-1.138.852-11.375-.37-2.392 1.582-7.678-3.195-7.928 0 0-2.786 2.467-3.523-.763" fill="#fff"/>
  <path d="M62.125 54.226s7.149-1.423 10.377.402m-10.345 2.526s7.15-.668 10.702.419m-10.673 2.509s7.153.09 11.029.437M62.214 63.01s7.156.846 11.354.455m-11.325 2.474s7.158 1.603 11.68.472" stroke="#E52421" stroke-width="1.5" stroke-linejoin="round"/>
  <path d="M65.906 48.154c-.135-.585-4.133.827-3.982 2.585.244 2.835.608 7.25.244 15.921-.033.75 1.58 2.844 9.606 1.565 3.114-.495 2.432-1.136.852-11.374-.37-2.393 1.58-7.677-3.195-7.929 0 0-2.786 2.467-3.525-.76" stroke="#000" stroke-width="1.5" stroke-linejoin="round"/>
  <path d="M69.086 46.42l-2.134.112-1.381-1.172h3.04l.475 1.06z" fill="#F5D0B4"/>
  <path d="M59.968 56.414l.044-.185a7.323 7.323 0 014.463 1.267c-3.148 13.205-4.58 12.317-5.765 11.927-1.464-.477-.595-5.054 1.258-13.009z" fill="#F5D0B4" stroke="#000" stroke-width="1.5" stroke-miterlimit="10"/>
  <path d="M60.049 56.08c.16-.692.329-1.408.505-2.15 1.363-5.77 3.095-4.99 4.23-3.532.79 1.015.627 3.045.137 5.192-.141.613-.277 1.197-.41 1.762a7.35 7.35 0 00-4.462-1.272v0z" fill="#fff" stroke="#000" stroke-width="1.5" stroke-miterlimit="10"/>
</svg>
